# xmcd CD database file
#
# Track frame offsets:
#	12093
#	28999
#	43146
#	58352
#	77099
#	93965
#	108219
#	129423
#	151250
#	167871
#	179775
#
# Disc length: 2706 seconds
#
# Revision: 1
# Processed by: cddbd v1.5.2PL0 Copyright (c) Steve Scherf et al.
# Submitted via: CDex 1.51
#
DISCID=9b09f10b
DTITLE=Bradley's Circus - Shotgun Bunny
DYEAR=2008
DGENRE=Blues
TTITLE0=Deal
TTITLE1=Lizzy
TTITLE2=Let's Go
TTITLE3=The Game
TTITLE4=Down On My Knees
TTITLE5=Record Machine
TTITLE6=Tomboy Boogie
TTITLE7=Shelter Me
TTITLE8=Searching
TTITLE9=Sad Sad Song
TTITLE10=Singing To The Lord
EXTD=YEAR: 2008
EXTT0=
EXTT1=
EXTT2=
EXTT3=
EXTT4=
EXTT5=
EXTT6=
EXTT7=
EXTT8=
EXTT9=
EXTT10=
PLAYORDER=
